<?xml version="1.0" encoding="UTF-8" standalone="no"?>
<svg
   xmlns:dc="http://purl.org/dc/elements/1.1/"
   xmlns:cc="http://creativecommons.org/ns#"
   xmlns:rdf="http://www.w3.org/1999/02/22-rdf-syntax-ns#"
   xmlns:svg="http://www.w3.org/2000/svg"
   xmlns="http://www.w3.org/2000/svg"
   xmlns:sodipodi="http://sodipodi.sourceforge.net/DTD/sodipodi-0.dtd"
   xmlns:inkscape="http://www.inkscape.org/namespaces/inkscape"
   width="3840"
   height="2160"
   viewBox="0 0 1016 571.5"
   version="1.1"
   id="svg8"
   inkscape:version="1.0.2 (e86c870879, 2021-01-15)">
  <defs
     id="defs2" />
  <sodipodi:namedview
     id="base"
     pagecolor="#ffffff"
     bordercolor="#666666"
     borderopacity="1.0"
     inkscape:pageopacity="0.0"
     inkscape:pageshadow="2"
     inkscape:zoom="0.13536512"
     inkscape:cx="3061.762"
     inkscape:cy="1887.1855"
     inkscape:document-units="px"
     inkscape:current-layer="layer1"
     inkscape:document-rotation="0"
     showgrid="false"
     inkscape:snap-grids="true"
     units="px"
     inkscape:window-width="1920"
     inkscape:window-height="1017"
     inkscape:window-x="-8"
     inkscape:window-y="-8"
     inkscape:window-maximized="1" />
  <metadata
     id="metadata5">
    <rdf:RDF>
      <cc:Work
         rdf:about="">
        <dc:format>image/svg+xml</dc:format>
        <dc:type
           rdf:resource="http://purl.org/dc/dcmitype/StillImage" />
        <dc:title></dc:title>
      </cc:Work>
    </rdf:RDF>
  </metadata>
  <g
     inkscape:label="Layer 1"
     inkscape:groupmode="layer"
     id="layer1">
    <path
       style="fill:#f02d3a;fill-opacity:1;stroke-width:0.264583"
       d="m 38.870576,687.57653 -24.705108,-0.1905 0.01109,-2.58273 c 0.0061,-1.4205 0.623059,-88.41137 1.371012,-193.31307 0.747956,-104.90169 1.364909,-195.00165 1.37101,-200.22214 l 0.01109,-9.4918 -26.971691,-24.25216 -26.971693,-24.25215 0.412778,-5.99154 c 0.227027,-3.29534 1.778214,-31.29697 3.447082,-62.22584 1.668867,-30.92887 3.178339,-56.37834 3.354379,-56.55438 0.176041,-0.17604 28.0087642,24.7574 61.850498,55.40765 l 61.530417,55.72772 -0.361204,22.94032 c -0.439235,27.89688 -4.421145,419.36107 -4.421145,434.64681 v 10.87181 l -12.611698,-0.16375 c -6.936435,-0.0901 -23.728997,-0.2495 -37.316809,-0.35425 z"
       id="path899" />
    <path
       style="fill:#f02d3a;fill-opacity:1;stroke:none;stroke-width:0.325436px;stroke-linecap:butt;stroke-linejoin:miter;stroke-opacity:1"
       d="M -8.9836759,-4.8373638 C 151.07866,90.854566 154.0987,92.76841 154.0987,92.76841 l -45.30065,484.2012 111.74164,1.91383 L 226.57974,96.596087 57.457301,-25.889591 Z"
       id="path901" />
    <path
       style="fill:#f02d3a;stroke:none;stroke-width:0.264583px;stroke-linecap:butt;stroke-linejoin:miter;stroke-opacity:1;fill-opacity:1"
       d="m 254.09672,-9.772951 3.90918,494.511311 27.36426,121.18459 87.95657,-1.95459 -50.81936,-121.18459 -15.63672,-498.420491 z"
       id="path903" />
    <path
       style="fill:#f02d3a;stroke:none;stroke-width:0.264583px;stroke-linecap:butt;stroke-linejoin:miter;stroke-opacity:1;fill-opacity:1"
       d="M 482.78377,600.0592 418.2823,596.15 377.2359,476.92 367.46296,78.183607 l 43.00098,-97.729509 84.04738,-1.95459 -62.54689,107.502459 3.90917,414.373133 z"
       id="path905" />
    <path
       style="fill:#f02d3a;stroke:none;stroke-width:0.264583px;stroke-linecap:butt;stroke-linejoin:miter;stroke-opacity:1;fill-opacity:1"
       d="m 541.42147,-15.636721 1.95461,623.514271 h 54.72851 l -3.90917,-625.468862 z"
       id="path907" />
    <path
       style="fill:#f02d3a;stroke:none;stroke-width:0.264583px;stroke-linecap:butt;stroke-linejoin:miter;stroke-opacity:1;fill-opacity:1"
       d="m 629.54836,606.05259 c 60.81257,0.69107 60.81257,0.69107 60.81257,0.69107 L 679.3041,-13.82104 h -55.28416 z"
       id="path911" />
    <path
       style="fill:#f02d3a;stroke:none;stroke-width:0.264583px;stroke-linecap:butt;stroke-linejoin:miter;stroke-opacity:1;fill-opacity:1"
       d="m 754.62878,-9.6747279 -57.35733,-0.6910521 8.98369,462.31377 199.71401,134.06411 85.69044,0.69104 -216.29925,-142.35671 z"
       id="path913" />
    <path
       style="fill:#f02d3a;stroke:none;stroke-width:0.264583px;stroke-linecap:butt;stroke-linejoin:miter;stroke-opacity:1;fill-opacity:1"
       d="M 1025.5212,465.07799 838.24605,423.61487 837.55501,-6.91052 h 86.38149 l -3.45525,382.84279 119.55195,24.87787 z"
       id="path915" />
    <path
       style="fill:#f02d3a;stroke:none;stroke-width:0.264583px;stroke-linecap:butt;stroke-linejoin:miter;stroke-opacity:1;fill-opacity:1"
       d="m 966.78172,-7.6015719 2.76421,109.1862119 77.39777,37.31681 -8.9836,-149.26723 z"
       id="path919" />
  </g>
</svg>
