<?xml version="1.0" encoding="UTF-8" standalone="no"?>
<svg
   xmlns:dc="http://purl.org/dc/elements/1.1/"
   xmlns:cc="http://creativecommons.org/ns#"
   xmlns:rdf="http://www.w3.org/1999/02/22-rdf-syntax-ns#"
   xmlns:svg="http://www.w3.org/2000/svg"
   xmlns="http://www.w3.org/2000/svg"
   xmlns:sodipodi="http://sodipodi.sourceforge.net/DTD/sodipodi-0.dtd"
   xmlns:inkscape="http://www.inkscape.org/namespaces/inkscape"
   width="1276.6069"
   height="147.45599"
   viewBox="0 0 337.76892 39.014398"
   version="1.1"
   id="svg8"
   inkscape:version="1.0.2 (e86c870879, 2021-01-15)">
  <defs
     id="defs2" />
  <sodipodi:namedview
     id="base"
     pagecolor="#ffffff"
     bordercolor="#666666"
     borderopacity="1.0"
     inkscape:pageopacity="0.0"
     inkscape:pageshadow="2"
     inkscape:zoom="0.34791667"
     inkscape:cx="646.36156"
     inkscape:cy="107.23809"
     inkscape:document-units="px"
     inkscape:current-layer="layer1"
     inkscape:document-rotation="0"
     showgrid="false"
     units="px"
     showguides="false"
     inkscape:window-width="1920"
     inkscape:window-height="1017"
     inkscape:window-x="-8"
     inkscape:window-y="-8"
     inkscape:window-maximized="1" />
  <metadata
     id="metadata5">
    <rdf:RDF>
      <cc:Work
         rdf:about="">
        <dc:format>image/svg+xml</dc:format>
        <dc:type
           rdf:resource="http://purl.org/dc/dcmitype/StillImage" />
        <dc:title></dc:title>
      </cc:Work>
    </rdf:RDF>
  </metadata>
  <g
     inkscape:label="Layer 1"
     inkscape:groupmode="layer"
     id="layer1"
     transform="translate(-82.983503,-114.50159)">
    <text
       xml:space="preserve"
       style="font-weight:bold;font-size:10.5833px;line-height:1.25;font-family:'ITC Avant Garde Gothic Std';-inkscape-font-specification:'ITC Avant Garde Gothic Std Bold';stroke-width:0.264583"
       x="184.44478"
       y="132.82175"
       id="text835"><tspan
         sodipodi:role="line"
         id="tspan833"
         x="184.44478"
         y="132.82175"
         style="stroke-width:0.264583"></tspan></text>
    <g
       aria-label="ESPORT PARK"
       id="text853"
       style="font-weight:bold;font-size:50.8px;line-height:1.25;font-family:'ITC Avant Garde Gothic Std';-inkscape-font-specification:'ITC Avant Garde Gothic Std Bold';stroke-width:0.264583;fill:#fafaff;fill-opacity:1">
      <path
         d="M 82.983503,152.80479 H 104.2687 v -8.4328 H 92.584702 v -6.4516 H 103.9131 v -8.4328 H 92.584702 v -5.842 H 104.2687 v -8.4328 H 87.718819 l 4.865883,8.4328 -9.601199,-0.0662 z"
         style="font-size:50.8px;fill:#fafaff;fill-opacity:1;stroke-width:0.264583"
         id="path1009"
         sodipodi:nodetypes="ccccccccccccccc" />
      <path
         d="m 107.6723,140.35879 c -0.254,7.366 3.7084,13.1572 13.5636,13.1572 9.9568,0 13.1064,-6.0452 13.1064,-12.0396 0,-4.3688 -1.778,-7.62 -8.7884,-10.7696 -6.7564,-3.048 -7.7724,-3.5052 -7.7724,-5.2324 0,-1.778 1.6256,-2.9464 3.302,-2.9464 2.9464,0 3.2512,2.3876 3.4544,3.6576 h 9.4996 c -0.1524,-9.0424 -7.4676,-11.684 -12.6492,-11.684 -6.2992,0 -13.1572,4.0132 -13.1572,11.5824 0,7.0612 6.5532,9.7028 9.1948,10.7696 5.7912,2.4384 7.366,3.048 7.366,5.0292 0,1.7272 -1.3716,3.6068 -3.6576,3.6068 -1.2192,0 -3.9116,-0.762 -3.9116,-5.1308 z"
         style="font-size:50.8px;fill:#fafaff;fill-opacity:1;stroke-width:0.264583"
         id="path1011" />
      <path
         d="m 148.51549,123.64559 -9.6012,-0.0662 v 29.22544 h 9.6012 v -11.7856 h 3.7592 c 5.842,0 8.382,-1.0668 10.9728,-3.2512 2.3876,-2.032 3.9624,-6.0452 3.9624,-9.8552 0,-3.81 -1.4732,-7.5184 -4.4196,-9.9568 -2.032,-1.6764 -4.6228,-2.7432 -11.5824,-2.7432 h -7.54732 z m 0,0 h 3.1496 c 1.0668,0 2.6416,0 3.9624,0.5588 1.3208,0.5588 2.3876,1.6256 2.3876,3.8608 0,2.2352 -1.016,3.4036 -2.286,3.9624 -1.27,0.5588 -2.794,0.5588 -3.7084,0.5588 h -3.5052 z"
         style="font-size:50.8px;fill:#fafaff;fill-opacity:1;stroke-width:0.264583"
         id="path1013"
         sodipodi:nodetypes="cccccscscscccssssscc" />
      <path
         d="m 169.59748,134.46599 c 0,9.652 7.9248,19.05 19.7612,19.05 11.684,0 19.9136,-9.0424 19.9136,-19.5072 0,-10.4648 -8.2804,-19.5072 -19.8628,-19.5072 -10.3632,0 -19.812,7.62 -19.812,19.9136 z m 9.6012,-0.5588 c 0,-5.2832 3.6068,-10.9728 10.2616,-10.9728 6.9088,0 10.2108,6.2484 10.2108,11.1252 0,4.826 -3.302,11.0236 -10.1092,11.0236 -6.4516,0 -10.3632,-5.3848 -10.3632,-11.1252 z"
         style="font-size:50.8px;fill:#fafaff;fill-opacity:1;stroke-width:0.264583"
         id="path1015" />
      <path
         d="m 214.45387,152.80479 h 9.6012 v -29.1592 h 3.556 c 1.3208,0 2.8448,0.3556 3.9116,1.016 1.27,0.8128 2.2352,2.3876 2.2352,4.3688 0,2.0828 -0.9652,3.8608 -2.1336,4.6228 -1.27,0.8128 -3.3528,1.016 -5.7912,1.016 h -1.5748 l 9.8044,18.1356 h 9.906 l -7.7724,-13.8176 c 1.778,-0.762 3.6068,-2.032 4.8768,-4.0132 1.0668,-1.6764 1.8796,-3.9116 1.8796,-6.8072 0,-4.1148 -1.4224,-7.8232 -4.572,-10.2616 -2.0828,-1.6256 -5.7404,-2.6924 -11.6332,-2.6924 h -7.53939 l 4.84699,8.4328 -9.6012,-0.0678 z"
         style="font-size:50.8px;fill:#fafaff;fill-opacity:1;stroke-width:0.264583"
         id="path1017"
         sodipodi:nodetypes="cccscscscccccscscccc" />
      <path
         d="m 252.14746,152.80479 h 9.6012 v -29.1592 h 7.366 v -8.4328 h -24.384 v 8.4328 h 7.4168 z"
         style="font-size:50.8px;fill:#fafaff;fill-opacity:1;stroke-width:0.264583"
         id="path1019" />
      <path
         d="m 298.2737,123.64559 -9.6012,-0.0662 v 29.22544 h 9.6012 v -11.7856 h 3.7592 c 5.842,0 8.382,-1.0668 10.9728,-3.2512 2.3876,-2.032 3.9624,-6.0452 3.9624,-9.8552 0,-3.81 -1.4732,-7.5184 -4.4196,-9.9568 -2.032,-1.6764 -4.6228,-2.7432 -11.5824,-2.7432 h -7.53657 z m 0,0 h 3.1496 c 1.0668,0 2.6416,0 3.9624,0.5588 1.3208,0.5588 2.3876,1.6256 2.3876,3.8608 0,2.2352 -1.016,3.4036 -2.286,3.9624 -1.27,0.5588 -2.794,0.5588 -3.7084,0.5588 h -3.5052 z"
         style="font-size:50.8px;fill:#fafaff;fill-opacity:1;stroke-width:0.264583"
         id="path1021"
         sodipodi:nodetypes="cccccscscscccssssscc" />
      <path
         d="m 325.60407,147.36919 h 13.1572 l 1.778,5.4356 h 10.5156 l -14.4272,-37.592 h -8.2804 l -14.8844,37.592 h 10.414 z m 10.668,-7.62 h -8.2804 l 4.064,-13.1064 z"
         style="font-size:50.8px;fill:#fafaff;fill-opacity:1;stroke-width:0.264583"
         id="path1023" />
      <path
         d="m 354.91563,152.80479 h 9.6012 v -29.1592 h 3.556 c 1.3208,0 2.8448,0.3556 3.9116,1.016 1.27,0.8128 2.2352,2.3876 2.2352,4.3688 0,2.0828 -0.9652,3.8608 -2.1336,4.6228 -1.27,0.8128 -3.3528,1.016 -5.7912,1.016 h -1.5748 l 9.8044,18.1356 h 9.906 l -7.7724,-13.8176 c 1.778,-0.762 3.6068,-2.032 4.8768,-4.0132 1.0668,-1.6764 1.8796,-3.9116 1.8796,-6.8072 0,-4.1148 -1.4224,-7.8232 -4.572,-10.2616 -2.0828,-1.6256 -5.7404,-2.6924 -11.6332,-2.6924 h -7.53686 l 4.84446,8.4328 -9.6012,-0.0678 z"
         style="font-size:50.8px;fill:#fafaff;fill-opacity:1;stroke-width:0.264583"
         id="path1025"
         sodipodi:nodetypes="cccscscscccccscscccc" />
      <path
         d="m 389.10403,152.80479 h 9.6012 v -16.256 l 10.36319,16.256 h 11.684 l -13.66519,-18.8976 12.39519,-18.6944 h -10.0584 l -10.71879,16.9164 v -16.9164 h -9.6012 z"
         style="font-size:50.8px;fill:#fafaff;fill-opacity:1;stroke-width:0.264583"
         id="path1027" />
    </g>
  </g>
</svg>
