<?xml version="1.0" encoding="UTF-8" standalone="no"?>
<svg
   xmlns:dc="http://purl.org/dc/elements/1.1/"
   xmlns:cc="http://creativecommons.org/ns#"
   xmlns:rdf="http://www.w3.org/1999/02/22-rdf-syntax-ns#"
   xmlns:svg="http://www.w3.org/2000/svg"
   xmlns="http://www.w3.org/2000/svg"
   xmlns:sodipodi="http://sodipodi.sourceforge.net/DTD/sodipodi-0.dtd"
   xmlns:inkscape="http://www.inkscape.org/namespaces/inkscape"
   width="1540.691"
   height="163.83987"
   viewBox="0 0 407.64117 43.3493"
   version="1.1"
   id="svg853"
   inkscape:version="1.0.2 (e86c870879, 2021-01-15)">
  <defs
     id="defs847" />
  <sodipodi:namedview
     id="base"
     pagecolor="#ffffff"
     bordercolor="#666666"
     borderopacity="1.0"
     inkscape:pageopacity="0.0"
     inkscape:pageshadow="2"
     inkscape:zoom="0.7"
     inkscape:cx="770.34552"
     inkscape:cy="81.919937"
     inkscape:document-units="mm"
     inkscape:current-layer="layer1"
     inkscape:document-rotation="0"
     showgrid="false"
     units="px"
     inkscape:window-width="1920"
     inkscape:window-height="1017"
     inkscape:window-x="-8"
     inkscape:window-y="-8"
     inkscape:window-maximized="1" />
  <metadata
     id="metadata850">
    <rdf:RDF>
      <cc:Work
         rdf:about="">
        <dc:format>image/svg+xml</dc:format>
        <dc:type
           rdf:resource="http://purl.org/dc/dcmitype/StillImage" />
        <dc:title></dc:title>
      </cc:Work>
    </rdf:RDF>
  </metadata>
  <g
     inkscape:label="Layer 1"
     inkscape:groupmode="layer"
     id="layer1"
     transform="translate(-83.156775,-98.80402)">
    <g
       aria-label="ESPORTS PARK"
       id="text1418"
       style="font-weight:bold;font-size:56.4444px;line-height:1.25;font-family:'ITC Avant Garde Gothic Std';-inkscape-font-specification:'ITC Avant Garde Gothic Std Bold';stroke-width:0.264583">
      <path
         d="m 83.156775,141.3631 h 23.650205 v -9.36977 H 93.824767 v -7.16844 h 12.587103 v -9.36977 H 93.824767 v -6.49111 H 106.80698 V 99.594242 H 88.401195 l 5.423572,9.369768 -10.667992,-0.002 z"
         style="fill:#f02d3a;fill-opacity:1"
         id="path1426"
         sodipodi:nodetypes="ccccccccccccccc" />
      <path
         d="m 110.58875,127.53422 c -0.28222,8.18444 4.12044,14.6191 15.07065,14.6191 11.0631,0 14.56266,-6.71688 14.56266,-13.37732 0,-4.85422 -1.97556,-8.46666 -9.76488,-11.96622 -7.50711,-3.38666 -8.636,-3.89466 -8.636,-5.81377 0,-1.97555 1.80622,-3.27377 3.66889,-3.27377 3.27377,0 3.61244,2.65288 3.83822,4.06399 h 10.5551 c -0.16933,-10.0471 -8.29733,-12.98221 -14.05465,-12.98221 -6.99911,0 -14.6191,4.45911 -14.6191,12.86932 0,7.84578 7.28132,10.78088 10.21643,11.96622 6.43466,2.70933 8.18444,3.38666 8.18444,5.58799 0,1.91911 -1.524,4.00755 -4.064,4.00755 -1.35466,0 -4.34622,-0.84666 -4.34622,-5.70088 z"
         style="font-size:56.4444px;fill:#000000;fill-opacity:1;stroke-width:0.264583"
         id="path1428" />
      <path
         d="m 155.97005,108.96401 -10.668,-0.0372 v 32.43625 h 10.668 V 128.268 h 4.17688 c 6.49111,0 9.31333,-1.18534 12.19199,-3.61244 2.65289,-2.25778 4.40267,-6.71689 4.40267,-10.95022 0,-4.23333 -1.63689,-8.35377 -4.91067,-11.0631 -2.25777,-1.86267 -5.13644,-3.047998 -12.86932,-3.047998 l -8.4529,0 z m 0,0 h 3.49955 c 1.18533,0 2.93511,0 4.40266,0.62089 1.46756,0.62089 2.65289,1.80622 2.65289,4.28977 0,2.48356 -1.12889,3.78178 -2.54,4.40267 -1.41111,0.62089 -3.10444,0.62089 -4.12044,0.62089 h -3.89466 z"
         style="font-size:56.4444px;fill:#000000;fill-opacity:1;stroke-width:0.264583"
         id="path1430"
         sodipodi:nodetypes="cccccscscscccssssscc" />
      <path
         d="m 179.39445,120.98667 c 0,10.72444 8.80533,21.16665 21.95688,21.16665 12.98221,0 22.1262,-10.0471 22.1262,-21.67465 0,-11.62755 -9.20044,-21.67465 -22.06976,-21.67465 -11.51466,0 -22.01332,8.46666 -22.01332,22.12621 z m 10.668,-0.62089 c 0,-5.87022 4.00755,-12.19199 11.40176,-12.19199 7.67644,0 11.34533,6.94266 11.34533,12.36132 0,5.36222 -3.66889,12.24844 -11.23244,12.24844 -7.16844,0 -11.51465,-5.98311 -11.51465,-12.36132 z"
         style="font-size:56.4444px;fill:#000000;fill-opacity:1;stroke-width:0.264583"
         id="path1432" />
      <path
         d="m 229.23485,141.3631 h 10.668 v -32.39909 h 3.9511 c 1.46756,0 3.16089,0.39511 4.34622,1.12889 1.41111,0.90311 2.48356,2.65289 2.48356,4.85422 0,2.31422 -1.07245,4.28977 -2.37067,5.13644 -1.41111,0.90311 -3.72533,1.12889 -6.43466,1.12889 h -1.74978 l 10.89377,20.15065 h 11.00666 l -8.63599,-15.35288 c 1.97555,-0.84666 4.00755,-2.25777 5.41866,-4.45911 1.18533,-1.86266 2.08844,-4.34622 2.08844,-7.56355 0,-4.57199 -1.58044,-8.69243 -5.07999,-11.40177 -2.31422,-1.80622 -6.37822,-2.991548 -12.92577,-2.991548 h -8.46307 l 5.47152,9.369768 -10.668,-0.0372 z"
         style="font-size:56.4444px;fill:#000000;fill-opacity:1;stroke-width:0.264583"
         id="path1434"
         sodipodi:nodetypes="cccscscscccccscscccc" />
      <path
         d="m 271.11659,141.3631 h 10.66799 v -32.39909 h 8.18444 v -9.369768 h -27.09331 v 9.369768 h 8.24088 z"
         style="font-size:56.4444px;fill:#000000;fill-opacity:1;stroke-width:0.264583"
         id="path1436" />
      <path
         d="m 291.88805,127.53422 c -0.28222,8.18444 4.12045,14.6191 15.07066,14.6191 11.0631,0 14.56265,-6.71688 14.56265,-13.37732 0,-4.85422 -1.97555,-8.46666 -9.76488,-11.96622 -7.5071,-3.38666 -8.63599,-3.89466 -8.63599,-5.81377 0,-1.97555 1.80622,-3.27377 3.66889,-3.27377 3.27377,0 3.61244,2.65288 3.83822,4.06399 h 10.5551 c -0.16934,-10.0471 -8.29733,-12.98221 -14.05466,-12.98221 -6.9991,0 -14.6191,4.45911 -14.6191,12.86932 0,7.84578 7.28133,10.78088 10.21644,11.96622 6.43466,2.70933 8.18444,3.38666 8.18444,5.58799 0,1.91911 -1.524,4.00755 -4.064,4.00755 -1.35467,0 -4.34622,-0.84666 -4.34622,-5.70088 z"
         style="font-size:56.4444px;fill:#000000;fill-opacity:1;stroke-width:0.264583"
         id="path1438" />
      <path
         d="m 354.71057,108.96401 -10.66799,-0.0372 v 32.43625 h 10.66799 V 128.268 h 4.17689 c 6.4911,0 9.31332,-1.18534 12.19199,-3.61244 2.65288,-2.25778 4.40266,-6.71689 4.40266,-10.95022 0,-4.23333 -1.63689,-8.35377 -4.91066,-11.0631 -2.25778,-1.86267 -5.13644,-3.047998 -12.86933,-3.047998 l -8.44512,0 z m 0,0 h 3.49955 c 1.18534,0 2.93511,0 4.40267,0.62089 1.46755,0.62089 2.65288,1.80622 2.65288,4.28977 0,2.48356 -1.12889,3.78178 -2.54,4.40267 -1.41111,0.62089 -3.10444,0.62089 -4.12044,0.62089 h -3.89466 z"
         style="font-size:56.4444px;fill:#000000;fill-opacity:1;stroke-width:0.264583"
         id="path1440"
         sodipodi:nodetypes="cccccscscscccssssscc" />
      <path
         d="m 385.07762,135.32355 h 14.6191 l 1.97555,6.03955 h 11.68399 L 397.32605,99.594242 h -9.20043 L 371.58741,141.3631 h 11.5711 z m 11.85332,-8.46666 h -9.20044 l 4.51556,-14.56266 z"
         style="font-size:56.4444px;fill:#000000;fill-opacity:1;stroke-width:0.264583"
         id="path1442" />
      <path
         d="m 417.646,141.3631 h 10.66799 v -32.39909 h 3.95111 c 1.46756,0 3.16089,0.39511 4.34622,1.12889 1.41111,0.90311 2.48355,2.65289 2.48355,4.85422 0,2.31422 -1.07244,4.28977 -2.37066,5.13644 -1.41111,0.90311 -3.72533,1.12889 -6.43466,1.12889 h -1.74978 l 10.89377,20.15065 h 11.00666 l -8.63599,-15.35288 c 1.97555,-0.84666 4.00755,-2.25777 5.41866,-4.45911 1.18533,-1.86266 2.08844,-4.34622 2.08844,-7.56355 0,-4.57199 -1.58044,-8.69243 -5.08,-11.40177 -2.31422,-1.80622 -6.37821,-2.991548 -12.92576,-2.991548 h -8.48261 l 5.49105,9.369768 -10.66799,-0.0372 z"
         style="font-size:56.4444px;fill:#000000;fill-opacity:1;stroke-width:0.264583"
         id="path1444"
         sodipodi:nodetypes="cccscscscccccscscccc" />
      <path
         d="m 455.63307,141.3631 h 10.668 v -18.06221 l 11.51465,18.06221 h 12.98222 L 475.61439,120.36578 489.38683,99.594242 H 478.21084 L 466.30107,118.39023 V 99.594242 h -10.668 z"
         style="font-size:56.4444px;fill:#000000;fill-opacity:1;stroke-width:0.264583"
         id="path1446" />
    </g>
  </g>
</svg>
